<?xml version="1.0" standalone="no"?>
<!DOCTYPE svg PUBLIC "-//W3C//DTD SVG 20010904//EN"
 "http://www.w3.org/TR/2001/REC-SVG-20010904/DTD/svg10.dtd">
<svg version="1.0" xmlns="http://www.w3.org/2000/svg"
 width="16.000000pt" height="16.000000pt" viewBox="0 0 16.000000 16.000000"
 preserveAspectRatio="xMidYMid meet">
<metadata>
Created by potrace 1.11, written by Peter Selinger 2001-2013
</metadata>
<g transform="translate(0.000000,16.000000) scale(0.006154,-0.006154)"
fill="#000000" stroke="none">
<path d="M1165 2523 c-130 -17 -343 -79 -374 -108 -11 -11 -6 -27 28 -100 34
-72 44 -86 58 -80 112 45 220 74 308 81 33 3 66 7 73 9 6 3 12 1 13 -3 4 -33
3 -205 -2 -208 -4 -2 -31 -6 -60 -10 -30 -4 -90 -17 -134 -29 -44 -13 -80 -23
-80 -22 -3 19 -49 99 -60 103 -32 13 -213 -106 -304 -200 l-44 -45 46 -47 46
-46 -33 -44 c-18 -24 -50 -77 -71 -119 -20 -41 -40 -75 -43 -75 -26 0 -192 64
-192 74 0 7 17 48 39 92 33 66 70 124 159 244 11 15 6 24 -38 66 -28 27 -63
56 -76 64 -25 14 -27 14 -61 -25 -124 -139 -232 -366 -274 -575 -15 -77 -21
-328 -8 -352 10 -18 18 -20 78 -15 l66 6 27 -109 c15 -60 43 -144 63 -187 33
-70 34 -79 20 -88 -77 -46 -105 -66 -105 -74 0 -27 116 -178 204 -267 150
-151 308 -247 507 -309 126 -39 129 -37 151 65 11 51 14 88 9 93 -5 5 -54 24
-108 42 -95 31 -188 74 -246 113 l-27 19 22 29 c12 16 22 30 23 31 1 2 46 -19
101 -47 99 -49 248 -100 260 -87 11 10 42 155 35 164 -3 5 -44 21 -91 36 -156
51 -283 144 -387 284 -58 79 -57 79 -126 36 l-38 -24 -23 54 c-24 54 -60 169
-69 219 -3 21 0 28 12 29 9 0 24 2 33 4 9 2 45 6 80 9 35 4 88 9 118 12 l56 5
24 -78 c13 -43 26 -83 28 -90 2 -6 -15 -22 -37 -35 -23 -13 -41 -29 -41 -37 0
-27 93 -143 158 -197 98 -81 270 -158 315 -141 16 6 41 102 35 133 -2 10 -25
23 -58 33 -46 15 -115 45 -128 56 -2 2 1 12 7 23 10 18 12 18 68 -9 32 -15 72
-30 90 -34 38 -8 49 7 59 82 l6 50 -53 17 c-76 25 -115 55 -187 145 l-19 25
-37 -22 c-27 -16 -38 -18 -41 -9 -22 59 -35 100 -33 102 2 1 21 6 43 11 l40 9
2 55 c3 71 27 144 65 196 20 29 27 47 22 57 -13 21 -80 77 -93 77 -14 0 -68
-74 -89 -121 l-16 -36 -73 24 c-40 14 -73 30 -73 35 0 12 61 122 84 152 14 18
16 17 53 -13 21 -17 41 -31 44 -31 4 0 29 20 56 45 26 25 72 57 100 73 58 29
63 43 37 93 -8 17 -13 34 -9 37 14 14 114 38 155 38 l44 -1 0 -68 c1 -77 -1
-80 -71 -91 -54 -8 -113 -36 -113 -53 0 -8 12 -36 26 -64 22 -44 28 -50 47
-44 61 18 98 27 101 24 5 -5 9 -38 7 -71 -1 -22 -6 -28 -25 -28 -15 0 -26 7
-29 20 -7 28 -33 35 -65 19 -47 -24 -121 -107 -134 -151 -11 -36 -10 -42 7
-54 10 -8 34 -17 52 -20 26 -5 37 -2 49 12 14 19 14 19 7 0 -4 -13 0 -23 12
-32 17 -13 17 -14 2 -14 -9 0 -17 -5 -17 -11 0 -7 -7 -8 -17 -4 -29 12 -97 5
-109 -11 -25 -32 17 -136 81 -200 l47 -46 27 26 c37 35 62 26 59 -20 -1 -18 1
-37 5 -41 10 -9 145 -9 154 1 4 4 6 22 5 40 -3 44 25 57 50 26 25 -31 59 -20
103 35 42 50 78 151 64 176 -10 20 -81 29 -106 15 -11 -6 -18 -5 -21 2 -2 7
-11 12 -20 12 -13 0 -13 2 3 14 12 9 16 19 12 32 -7 18 -6 18 7 2 16 -22 36
-23 81 -4 41 18 44 38 14 93 -28 50 -46 70 -96 104 -52 36 -80 38 -89 4 -4
-18 -13 -25 -30 -25 -20 0 -24 5 -25 33 -2 36 1 60 7 66 3 3 40 -6 101 -24 19
-6 25 0 47 44 14 28 26 57 26 66 0 17 -56 43 -114 51 -67 11 -70 14 -69 90 0
68 1 69 28 72 32 4 163 -26 170 -39 3 -5 -1 -22 -10 -38 -25 -49 -19 -64 38
-93 28 -16 74 -48 100 -73 27 -25 52 -45 56 -45 3 0 23 14 44 31 l37 31 20
-24 c10 -12 34 -51 51 -86 37 -72 37 -72 -48 -97 -68 -20 -67 -20 -85 18 -25
50 -77 117 -91 117 -14 0 -97 -76 -97 -89 0 -4 12 -23 26 -42 40 -53 55 -98
62 -179 7 -80 5 -77 79 -96 13 -3 -15 -104 -29 -104 -5 0 -22 7 -38 15 -27 14
-31 14 -47 -4 -102 -109 -161 -151 -213 -151 -28 0 -35 -38 -18 -97 14 -47 15
-48 48 -45 19 2 61 16 93 31 56 27 58 27 68 9 6 -11 9 -21 7 -23 -13 -11 -82
-41 -128 -56 l-55 -17 3 -51 c4 -76 16 -101 49 -101 39 0 178 59 237 99 101
70 225 214 212 247 -3 8 -22 24 -41 35 -20 12 -34 27 -33 33 2 6 15 46 28 89
l24 78 56 -6 c30 -2 87 -8 125 -11 39 -4 77 -8 85 -10 8 -1 20 -3 26 -3 21 -2
-13 -136 -62 -249 l-23 -52 -51 30 c-28 16 -53 30 -55 30 -2 0 -28 -33 -58
-73 -96 -129 -201 -211 -341 -267 -41 -17 -79 -30 -85 -30 -5 0 -21 -4 -34 -9
l-25 -10 17 -80 c10 -45 21 -84 25 -88 16 -17 245 69 328 124 27 17 28 17 43
-2 40 -51 39 -52 -31 -91 -84 -47 -187 -89 -258 -106 -31 -7 -58 -18 -61 -25
-4 -12 14 -109 31 -165 6 -22 26 -22 98 -4 133 35 298 116 417 205 140 106
347 354 324 391 -3 5 -30 23 -60 40 -30 17 -55 35 -55 39 0 3 6 15 13 26 31
47 85 210 101 307 l7 37 73 -6 73 -5 6 28 c11 51 0 287 -17 364 -45 207 -147
417 -269 555 -34 38 -36 39 -60 25 -34 -21 -113 -94 -120 -112 -3 -8 7 -28 22
-44 62 -66 181 -271 181 -310 0 -10 -167 -74 -193 -74 -4 0 -18 25 -32 56 -14
31 -45 85 -70 120 l-45 65 47 43 46 44 -52 55 c-83 88 -265 205 -297 193 -8
-3 -24 -25 -34 -49 -10 -23 -22 -46 -25 -49 -4 -4 -26 0 -48 8 -46 17 -120 32
-181 39 -21 3 -41 7 -44 10 -4 4 -6 98 -3 186 l1 25 68 -7 c93 -11 157 -24
227 -49 109 -38 114 -39 122 -27 5 7 22 44 39 84 25 56 30 75 21 87 -15 19
-162 70 -264 92 -74 15 -309 26 -378 17z m312 -62 c32 -6 72 -13 88 -16 38 -7
185 -55 185 -61 0 -8 -32 -84 -36 -84 -2 0 -38 11 -81 26 -211 69 -490 67
-681 -6 -29 -11 -56 -20 -61 -20 -7 0 -41 70 -41 84 0 15 224 73 317 82 32 4
59 8 61 9 6 5 196 -5 249 -14z m-536 -421 c24 -57 31 -59 107 -30 144 55 334
57 490 4 40 -13 78 -24 85 -24 8 0 24 23 36 50 12 28 28 50 35 50 29 0 236
-154 236 -176 0 -6 -18 -28 -41 -48 -38 -36 -39 -39 -25 -59 68 -94 117 -177
136 -227 12 -32 27 -60 33 -63 7 -2 75 17 152 42 l140 47 -3 29 c-4 44 -93
220 -150 299 l-50 69 31 28 c17 16 34 29 37 29 9 0 39 -38 90 -114 119 -178
189 -401 192 -610 2 -132 1 -135 -24 -131 -84 12 -104 14 -114 7 -6 -4 -16
-41 -23 -82 -17 -94 -54 -205 -97 -292 -38 -75 -36 -81 29 -114 53 -27 58 -33
45 -58 -24 -46 -106 -144 -177 -214 -124 -120 -297 -223 -455 -271 -85 -26
-83 -26 -90 7 -4 15 -9 34 -12 43 -3 13 14 22 78 43 101 34 247 108 289 147
l31 28 -45 63 c-25 35 -51 67 -59 71 -9 6 -38 -7 -87 -37 -67 -41 -238 -112
-248 -103 -2 3 -6 20 -9 39 -6 33 -5 35 37 47 164 48 339 182 445 339 1 2 22
-8 47 -22 24 -14 52 -26 61 -26 45 0 167 370 132 399 -15 12 -50 18 -151 26
-44 3 -87 8 -95 10 -8 2 -45 7 -82 10 -74 8 -68 13 -88 -80 -6 -27 -23 -76
-37 -107 -29 -64 -25 -76 27 -98 17 -7 30 -18 30 -25 0 -21 -111 -135 -173
-177 -58 -39 -163 -88 -190 -88 -9 0 -14 10 -13 27 1 22 8 29 46 42 59 21 123
56 140 76 15 18 5 43 -41 97 l-28 33 -53 -28 c-85 -43 -108 -50 -108 -29 0 11
21 27 60 46 34 16 79 49 105 77 45 49 46 49 75 34 16 -8 36 -15 44 -15 19 0
62 91 74 159 11 58 4 69 -46 73 -21 1 -32 8 -33 18 -3 65 -18 120 -51 184 -20
41 -26 62 -19 69 13 13 31 -8 65 -80 14 -28 29 -54 34 -57 13 -8 230 63 235
78 14 35 -124 276 -158 276 -8 0 -30 -14 -50 -31 l-35 -31 -33 29 c-18 16 -51
40 -73 53 -21 13 -40 24 -42 25 -1 1 6 21 17 45 11 24 17 48 15 55 -5 11 -95
46 -159 60 -99 23 -275 9 -375 -31 -57 -23 -62 -30 -43 -73 8 -20 17 -40 19
-46 2 -5 -14 -20 -36 -33 -22 -12 -56 -36 -75 -53 l-35 -31 -35 31 c-20 17
-40 31 -45 31 -24 0 -96 -97 -133 -181 -33 -75 -36 -84 -28 -97 9 -15 219 -82
236 -76 7 3 16 17 20 32 8 33 54 112 65 112 21 0 20 -24 -3 -63 -28 -46 -49
-115 -51 -164 -2 -39 -9 -46 -44 -51 -44 -6 -50 -17 -40 -73 5 -28 20 -76 33
-105 26 -58 43 -66 83 -38 22 15 25 14 80 -38 31 -30 81 -65 110 -78 48 -22
64 -41 44 -54 -4 -2 -39 11 -76 30 -38 19 -72 34 -77 34 -12 0 -79 -90 -79
-106 0 -18 64 -60 137 -89 41 -17 59 -30 61 -44 2 -12 -3 -24 -11 -27 -22 -8
-134 42 -204 92 -63 45 -163 149 -163 170 0 6 13 17 30 24 52 22 56 34 26 99
-14 33 -31 85 -38 118 -6 32 -16 61 -22 66 -9 6 -91 2 -146 -8 -8 -2 -51 -6
-95 -9 -116 -10 -139 -15 -152 -33 -7 -9 -11 -19 -9 -22 2 -3 7 -24 10 -46 20
-123 101 -325 132 -325 9 0 37 12 61 26 25 14 46 24 47 22 101 -150 252 -271
408 -325 l80 -28 -6 -34 c-3 -18 -7 -35 -9 -38 -10 -9 -180 62 -247 103 -39
24 -75 44 -80 44 -8 0 -80 -92 -99 -127 -10 -20 -8 -25 31 -54 59 -43 209
-115 291 -140 54 -16 67 -24 63 -37 -2 -9 -7 -29 -10 -44 -8 -34 -12 -34 -108
-2 -162 54 -342 165 -459 284 -57 58 -137 158 -157 196 -13 25 -11 28 55 64
23 13 44 28 46 34 2 6 -10 40 -27 76 -56 114 -84 203 -102 325 -7 47 -18 56
-59 50 -96 -15 -95 -15 -97 13 -12 212 31 418 127 606 43 84 139 226 153 226
4 0 21 -13 39 -29 l32 -28 -51 -69 c-57 -78 -148 -258 -151 -301 -2 -27 0 -29
138 -74 77 -25 145 -44 151 -42 7 2 20 25 29 51 21 55 76 152 114 202 44 56
44 56 -4 101 l-46 43 43 39 c53 47 188 137 205 137 7 0 22 -22 34 -50z m461
-331 c35 -8 45 -14 41 -26 -4 -11 -14 -13 -42 -7 -59 12 -148 13 -192 2 -33
-9 -43 -8 -50 3 -10 18 17 29 91 38 59 7 78 6 152 -10z m-214 -224 c8 -18 16
-23 29 -18 16 6 16 5 5 -10 -8 -9 -11 -25 -7 -36 4 -15 -3 -11 -28 14 -19 19
-40 35 -46 35 -6 0 -21 -16 -33 -35 -25 -39 -45 -48 -27 -12 16 30 70 87 84
87 7 0 17 -11 23 -25z m289 -7 c33 -36 58 -78 46 -78 -4 0 -18 15 -29 33 -28
42 -47 42 -84 1 l-29 -33 2 27 c2 22 -4 29 -33 39 -19 6 -27 12 -17 12 10 1
27 -3 37 -9 14 -7 23 -6 34 6 9 8 16 20 16 25 0 19 27 8 57 -23z m-194 -5 c-7
-2 -21 -2 -30 0 -10 3 -4 5 12 5 17 0 24 -2 18 -5z m-156 -225 c-3 -7 -5 -2
-5 12 0 14 2 19 5 13 2 -7 2 -19 0 -25z m344 -1 c-10 -9 -11 -8 -5 6 3 10 9
15 12 12 3 -3 0 -11 -7 -18z m-353 -77 c10 0 27 7 38 15 26 19 35 19 32 -2 -2
-12 9 -24 32 -35 19 -10 28 -18 19 -18 -8 0 -24 7 -35 15 -25 19 -30 19 -53
-7 -17 -18 -23 -19 -36 -8 -22 18 -55 84 -54 107 0 10 9 -1 19 -24 13 -28 26
-43 38 -43z m403 13 c-11 -22 -27 -45 -36 -53 -13 -11 -19 -10 -36 8 -23 26
-28 26 -53 7 -11 -8 -25 -15 -30 -15 -6 0 4 9 22 20 29 18 31 23 21 42 l-11
21 35 -21 c51 -32 66 -28 85 20 10 25 18 36 20 26 2 -9 -6 -34 -17 -55z m-207
-48 c3 -9 12 -12 23 -9 17 5 17 5 1 -6 -11 -6 -18 -23 -18 -40 0 -24 -4 -30
-21 -30 -16 0 -20 5 -17 24 1 13 -3 31 -11 40 -11 14 -11 16 3 16 9 0 16 5 16
10 0 15 17 12 24 -5z"/>
</g>
</svg>
