<?xml version="1.0" standalone="no"?>
<!DOCTYPE svg PUBLIC "-//W3C//DTD SVG 20010904//EN"
 "http://www.w3.org/TR/2001/REC-SVG-20010904/DTD/svg10.dtd">
<svg version="1.0" xmlns="http://www.w3.org/2000/svg"
 width="16.000000pt" height="16.000000pt" viewBox="0 0 16.000000 16.000000"
 preserveAspectRatio="xMidYMid meet">
<metadata>
Created by potrace 1.11, written by Peter Selinger 2001-2013
</metadata>
<g transform="translate(0.000000,16.000000) scale(0.005594,-0.005594)"
fill="#000000" stroke="none">
<path d="M1299 2680 c-174 -20 -392 -89 -396 -125 -3 -31 69 -170 87 -168 8 1
45 13 82 27 66 25 177 50 276 61 l52 6 0 -113 0 -114 -82 -11 c-46 -6 -109
-20 -141 -31 l-58 -19 -26 51 c-14 28 -31 54 -37 58 -14 9 -141 -59 -214 -116
-31 -24 -77 -65 -101 -91 l-43 -47 46 -47 46 -46 -36 -50 c-20 -28 -52 -83
-71 -122 -19 -40 -40 -73 -47 -73 -31 0 -196 63 -196 75 0 28 101 213 155 282
30 40 55 76 55 81 0 7 -49 56 -112 111 -27 24 -28 24 -49 5 -42 -37 -136 -171
-181 -260 -97 -190 -140 -362 -142 -576 -1 -167 0 -168 94 -158 36 4 65 6 65
6 1 -1 11 -45 23 -99 17 -80 42 -151 98 -282 2 -5 -23 -26 -56 -44 -33 -19
-60 -41 -60 -48 0 -33 115 -188 207 -280 92 -92 213 -178 337 -239 112 -54
285 -110 310 -101 13 5 54 183 44 192 -2 3 -44 16 -93 30 -94 28 -283 119
-292 141 -3 7 5 27 16 43 l22 30 92 -48 c98 -52 247 -104 271 -95 15 6 37 90
40 148 1 27 -3 30 -62 46 -177 49 -350 178 -448 332 -29 45 -43 47 -101 12
-25 -14 -46 -24 -48 -22 -26 30 -95 235 -95 284 0 13 6 24 13 24 6 0 71 7 142
15 72 8 135 15 142 15 7 0 17 -19 23 -42 6 -24 20 -65 31 -92 10 -27 18 -50
17 -50 -28 -15 -88 -58 -88 -64 0 -4 7 -19 17 -32 86 -130 172 -206 302 -269
76 -37 165 -61 177 -48 9 9 35 130 30 142 -2 6 -30 19 -62 29 -67 21 -134 53
-134 64 0 4 4 13 9 21 8 12 19 10 70 -13 34 -15 77 -30 96 -33 31 -5 36 -2 45
21 5 15 11 45 12 68 l3 42 -65 24 c-52 20 -79 39 -133 95 l-69 71 -34 -19
c-19 -10 -36 -16 -38 -14 -6 6 -36 98 -36 109 0 6 15 10 33 10 46 0 57 15 57
82 0 66 26 142 65 194 16 21 24 41 20 52 -11 28 -83 85 -100 78 -13 -4 -37
-38 -100 -140 -9 -14 -17 -14 -82 7 -40 12 -73 26 -73 31 0 16 72 144 91 161
18 17 20 16 54 -14 20 -17 39 -31 43 -31 5 0 21 14 37 30 26 28 84 69 158 114
27 16 27 17 11 54 -9 20 -18 42 -21 48 -6 15 76 43 150 51 l57 6 0 -80 0 -80
-42 -7 c-64 -10 -136 -35 -141 -50 -6 -15 35 -110 51 -120 5 -3 29 1 52 9 72
25 80 22 80 -34 0 -40 -3 -50 -20 -54 -15 -4 -24 2 -35 24 -19 35 -34 36 -84
5 -67 -43 -142 -153 -128 -189 3 -8 27 -20 53 -27 43 -12 49 -12 58 4 28 45
36 52 23 18 -10 -29 -10 -35 6 -47 16 -12 16 -13 -4 -18 -19 -5 -21 -11 -16
-44 l6 -38 -13 35 c-12 34 -14 35 -67 35 -52 0 -54 -1 -57 -28 -5 -45 28 -122
76 -177 49 -56 72 -62 96 -25 14 22 20 24 37 14 16 -8 20 -17 16 -38 -9 -45 3
-53 83 -53 80 0 92 8 83 53 -4 21 0 30 16 38 17 10 23 8 37 -14 24 -37 47 -31
96 25 48 55 81 132 76 177 -3 27 -5 28 -57 28 -53 0 -55 -1 -67 -35 l-13 -35
6 38 c5 33 3 39 -16 44 -20 5 -20 6 -4 18 16 12 16 18 6 47 -13 34 -5 27 23
-18 9 -16 15 -16 58 -4 26 7 50 19 53 27 14 36 -61 146 -128 189 -50 31 -65
30 -84 -5 -11 -22 -20 -28 -35 -24 -17 4 -20 14 -20 54 0 56 8 59 80 34 23 -8
47 -12 52 -9 16 10 57 105 51 120 -5 15 -77 40 -140 50 l-43 7 0 80 0 80 58
-6 c73 -8 155 -36 149 -51 -3 -6 -12 -28 -21 -48 -16 -37 -16 -38 11 -54 74
-45 132 -86 158 -114 16 -16 32 -30 37 -30 4 0 23 14 43 31 34 30 36 31 54 14
19 -17 91 -145 91 -161 0 -5 -33 -19 -73 -31 -65 -21 -73 -21 -82 -7 -63 102
-87 136 -100 140 -17 7 -89 -50 -100 -78 -4 -11 4 -31 20 -52 39 -52 65 -128
65 -194 0 -67 11 -82 57 -82 18 0 33 -4 33 -10 0 -11 -30 -103 -36 -109 -2 -2
-19 4 -38 14 l-34 19 -69 -71 c-54 -56 -81 -75 -133 -95 l-65 -24 3 -42 c1
-23 7 -53 12 -68 9 -23 14 -26 45 -21 19 3 62 18 96 33 51 23 62 25 70 13 5
-8 9 -17 9 -21 0 -11 -67 -43 -134 -64 -32 -10 -60 -23 -62 -29 -5 -12 21
-133 30 -142 12 -13 100 11 172 46 95 46 189 115 236 173 42 53 88 120 88 130
0 6 -60 49 -88 64 -1 0 7 23 17 50 11 27 25 68 31 92 6 23 16 42 23 42 7 0 71
-7 142 -15 72 -8 136 -15 143 -15 6 0 12 -11 12 -24 0 -49 -69 -254 -95 -284
-2 -2 -23 8 -48 22 -58 35 -72 33 -101 -11 -98 -155 -271 -284 -448 -333 -59
-16 -63 -19 -62 -46 3 -58 25 -142 40 -148 24 -9 173 43 271 95 l92 48 22 -30
c11 -16 19 -36 16 -43 -9 -22 -198 -113 -292 -141 -49 -14 -91 -27 -93 -30
-10 -9 31 -187 44 -192 25 -9 198 47 310 101 124 61 245 147 337 239 92 92
207 247 207 280 0 7 -27 29 -60 48 -33 18 -58 39 -56 44 56 131 81 202 98 282
12 54 22 98 23 99 0 0 29 -2 65 -6 94 -10 95 -9 94 158 -2 214 -45 386 -142
576 -45 89 -139 223 -181 260 -21 19 -22 19 -49 -5 -63 -55 -112 -104 -112
-111 0 -5 25 -41 55 -81 54 -69 155 -254 155 -282 0 -12 -165 -75 -196 -75 -7
0 -28 33 -47 73 -19 39 -51 94 -71 122 l-36 50 40 40 c22 22 40 48 40 57 0 49
-310 273 -347 250 -6 -4 -22 -30 -36 -58 l-26 -51 -58 19 c-32 11 -95 25 -140
31 l-83 11 0 114 0 113 53 -6 c103 -12 213 -37 286 -65 48 -19 79 -26 86 -20
18 15 78 159 72 174 -8 19 -159 72 -274 95 -118 24 -281 33 -384 21z m406 -78
c45 -12 106 -30 137 -42 l57 -21 -18 -40 c-10 -21 -20 -41 -22 -44 -3 -2 -40
7 -82 20 -228 73 -466 73 -694 0 -42 -13 -79 -22 -82 -20 -2 3 -12 23 -22 44
l-18 40 57 21 c54 21 183 54 247 64 17 2 104 3 195 1 124 -2 185 -8 245 -23z
m-647 -412 c12 -28 27 -53 35 -56 8 -3 37 4 64 15 66 26 200 51 273 51 73 0
207 -25 273 -51 27 -11 56 -18 64 -15 8 3 23 28 35 56 11 27 24 50 27 50 16 0
130 -75 193 -127 l69 -56 -47 -48 -48 -49 22 -27 c53 -68 98 -143 128 -211 17
-40 34 -75 37 -78 9 -9 298 88 304 102 12 31 -88 235 -169 343 l-40 53 34 35
35 35 37 -45 c53 -64 129 -195 166 -284 57 -137 81 -252 87 -415 l6 -147 -79
2 -78 2 -13 -75 c-17 -104 -45 -191 -92 -288 -22 -45 -38 -88 -36 -95 3 -6 30
-25 60 -42 30 -16 55 -34 55 -40 0 -20 -130 -182 -194 -242 -122 -115 -273
-208 -423 -262 -130 -47 -130 -47 -142 -4 -6 21 -11 43 -11 50 0 6 33 21 73
33 134 41 327 147 327 180 0 18 -78 131 -99 144 -6 4 -31 -7 -56 -24 -83 -57
-273 -136 -289 -119 -2 2 -6 19 -8 37 -3 32 -2 33 62 56 182 64 331 182 436
344 1 2 25 -11 53 -27 28 -17 57 -28 64 -25 17 6 63 99 93 186 29 86 51 215
38 227 -10 10 -393 53 -404 46 -4 -3 -13 -30 -19 -62 -6 -32 -23 -85 -36 -118
-14 -33 -25 -66 -25 -72 0 -7 18 -24 40 -38 37 -23 39 -28 29 -48 -25 -48
-155 -163 -224 -198 -69 -36 -143 -64 -150 -57 -2 1 -6 14 -10 28 -5 23 -2 27
39 39 59 17 166 81 166 99 0 15 -67 112 -78 112 -4 0 -39 -16 -79 -36 -40 -19
-77 -33 -83 -29 -22 14 -7 31 47 55 36 15 79 46 113 80 l56 56 29 -18 c17 -10
36 -18 43 -18 18 0 59 93 74 164 13 65 6 76 -47 76 -30 0 -31 1 -42 71 -6 39
-25 99 -43 135 -24 50 -29 69 -21 77 16 15 42 -19 72 -90 14 -34 27 -53 38
-53 9 0 63 15 121 33 89 28 105 37 108 56 7 48 -123 270 -158 271 -9 0 -31
-13 -51 -29 l-35 -29 -55 42 c-30 22 -65 48 -77 56 -22 15 -22 15 -4 63 17 47
16 49 -3 63 -29 21 -108 43 -202 56 -119 17 -309 -12 -368 -56 -19 -14 -20
-16 -3 -63 18 -48 18 -48 -4 -63 -12 -8 -47 -34 -77 -56 l-55 -42 -35 29 c-20
16 -42 29 -51 29 -35 -1 -165 -223 -158 -271 3 -19 19 -28 108 -56 58 -18 112
-33 121 -33 11 0 24 19 38 53 30 71 56 105 72 90 8 -8 3 -27 -21 -77 -18 -36
-37 -96 -43 -135 -11 -70 -12 -71 -42 -71 -53 0 -60 -11 -47 -76 15 -71 56
-164 74 -164 7 0 26 8 43 18 l29 18 56 -56 c34 -34 77 -65 113 -80 54 -24 69
-41 47 -55 -6 -4 -43 10 -83 29 -40 20 -75 36 -79 36 -11 0 -78 -97 -78 -112
0 -18 107 -82 166 -99 41 -12 44 -16 39 -39 -4 -14 -8 -27 -10 -28 -7 -7 -81
21 -150 57 -69 35 -199 150 -224 198 -10 20 -8 25 29 48 22 14 40 31 40 38 0
6 -11 39 -25 72 -13 33 -30 86 -36 118 -6 32 -15 59 -19 62 -11 7 -394 -36
-404 -46 -13 -12 9 -141 38 -227 30 -87 76 -180 93 -186 7 -3 36 8 64 25 28
16 52 29 53 27 105 -162 254 -280 436 -344 64 -23 65 -24 62 -56 -2 -18 -6
-35 -8 -37 -16 -17 -206 62 -289 119 -25 17 -50 28 -56 24 -21 -13 -99 -127
-99 -144 0 -34 190 -138 328 -180 39 -12 72 -27 72 -33 0 -7 -5 -29 -11 -50
-12 -43 -12 -43 -142 4 -150 54 -301 147 -423 262 -64 60 -194 222 -194 242 0
6 25 24 55 40 30 17 57 36 60 42 2 7 -14 50 -36 95 -47 97 -75 184 -92 288
l-13 75 -78 -2 -79 -2 6 147 c6 163 30 278 87 415 37 89 113 220 166 284 l37
45 35 -35 34 -35 -40 -53 c-81 -108 -181 -312 -169 -343 6 -14 295 -111 304
-102 3 3 20 38 37 78 30 68 75 143 128 211 l22 27 -48 49 -47 48 69 56 c63 52
177 127 193 127 3 0 16 -23 27 -50z m467 -344 c32 -7 50 -16 50 -26 0 -11 -9
-14 -30 -12 -16 1 -68 3 -115 3 -47 0 -98 -2 -115 -3 -21 -2 -30 1 -30 12 0
18 78 38 145 38 25 0 68 -5 95 -12z m-207 -235 c16 -16 28 -42 28 -59 l2 -30
-30 34 c-38 43 -61 43 -88 -1 -24 -39 -30 -43 -30 -20 0 14 76 105 87 105 3 0
17 -13 31 -29z m301 -16 c22 -24 41 -51 41 -60 0 -23 -6 -19 -30 20 -27 44
-50 44 -88 1 l-30 -34 2 30 c1 26 40 87 57 88 4 0 25 -20 48 -45z m-137 7 c10
-4 -14 -7 -52 -7 -38 0 -62 3 -52 7 9 4 33 7 52 7 19 0 43 -3 52 -7z m-277
-269 c9 -21 21 -41 27 -44 13 -8 57 12 82 36 9 9 16 12 16 6 0 -5 -4 -13 -10
-16 -20 -13 -9 -35 28 -54 45 -25 36 -27 -13 -4 -34 16 -36 16 -58 -5 l-23
-22 -21 22 c-25 28 -53 81 -53 103 0 25 9 17 25 -22z m459 -25 c-9 -18 -26
-43 -37 -56 l-21 -22 -23 22 c-22 21 -24 21 -58 5 -49 -23 -58 -21 -12 4 36
19 47 41 27 54 -5 3 -10 11 -10 16 0 6 7 3 16 -6 25 -24 69 -44 82 -36 6 3 19
25 28 46 12 27 19 34 21 23 2 -9 -3 -32 -13 -50z m-214 -58 c11 -11 15 -20 9
-20 -7 0 -10 -14 -7 -35 4 -32 2 -35 -22 -35 -24 0 -26 3 -22 35 3 21 0 35 -7
35 -6 0 -3 9 7 19 22 24 19 24 42 1z"/>
</g>
</svg>
